# AST/ASF file generated using VICON BodyLanguage
# -----------------------------------------------
:version 1.10
:name VICON
:units
  mass 1.0
  length 0.45
  angle deg
:documentation
   .ast/.asf automatically generated from VICON data using
   VICON BodyBuilder and BodyLanguage model FoxedUp or BRILLIANT.MOD
:root
   order TX TY TZ RX RY RZ
   axis XYZ
   position 0 0 0  
   orientation 0 0 0 
:bonedata
  begin
     id 1 
     name lhipjoint
     direction 0.677091 -0.635792 0.370561 
     length 2.74323 
     axis 0 0 0  XYZ
  end
  begin
     id 2 
     name lfemur
     direction 0.34202 -0.939693 0  
     length 7.44995  
     axis 0 0 20  XYZ
    dof rx ry rz
    limits (-160.0 20.0)
           (-70.0 70.0)
           (-60.0 70.0)
  end
  begin
     id 3 
     name ltibia
     direction 0.34202 -0.939693 0   
     length 7.34467   
     axis 0 0 20   XYZ
    dof rx
    limits (-10.0 170.0)
  end
  begin
     id 4 
     name lfoot
     direction 0.101953 -0.280114 0.954537   
     length 1.72105   
     axis -90 7.62852e-016 20   XYZ
    dof rx rz
    limits (-45.0 90.0)
           (-70.0 20.0)
  end
  begin
     id 5 
     name ltoes
     direction 1.53537e-011 -4.21915e-011 1   
     length 0.865872   
     axis -90 7.62852e-016 20   XYZ
    dof rx
    limits (-90.0 20.0)
  end
  begin
     id 6 
     name rhipjoint
     direction -0.695735 -0.620586 0.361699   
     length 2.81045  
     axis 0 0 0  XYZ 
  end
  begin
     id 7 
     name rfemur
     direction -0.34202 -0.939693 0   
     length 7.29387   
     axis 0 0 -20   XYZ
    dof rx ry rz
    limits (-160.0 20.0)
           (-70.0 70.0)
           (-70.0 60.0)
  end
  begin
     id 8 
     name rtibia
     direction -0.34202 -0.939693 0   
     length 7.44935   
     axis 0 0 -20   XYZ
    dof rx
    limits (-10.0 170.0)
 end
 begin
     id 9 
     name rfoot
     direction -0.104163 -0.286184 0.952496   
     length 1.77731  
     axis -90 -7.62852e-016 -20   XYZ
    dof rx rz
    limits (-45.0 90.0)
           (-20.0 70.0)
  end
  begin
     id 10 
     name rtoes
     direction -1.5355e-011 -4.21888e-011 1   
     length 0.892424   
     axis -90 -7.62852e-016 -20   XYZ
    dof rx
    limits (-90.0 20.0)
  end
  begin
     id 11 
     name lowerback
     direction 0.0100202 0.997226 -0.0737589   
     length 2.16892   
     axis 0 0 0   XYZ
    dof rx ry rz
    limits (-20.0 45.0)
           (-30.0 30.0)
           (-30.0 30.0)
  end
  begin
     id 12 
     name upperback
     direction 0.00432398 0.999988 -0.00215019   
     length 2.17326   
     axis 0 0 0   XYZ
    dof rx ry rz
    limits (-20.0 45.0)
           (-30.0 30.0)
           (-30.0 30.0)
  end
  begin
     id 13 
     name thorax
     direction -0.00195047 0.999485 0.0320434   
     length 2.18139   
     axis 0 0 0   XYZ
    dof rx ry rz
    limits (-20.0 45.0)
           (-30.0 30.0)
           (-30.0 30.0)
  end
  begin
     id 14 
     name lowerneck
     direction 0.00782762 0.986241 0.165128   
     length 1.88415   
     axis 0 0 0   XYZ
    dof rx ry rz
    limits (-20.0 45.0)
           (-30.0 30.0)
           (-30.0 30.0)
  end
  begin
     id 15 
     name upperneck
     direction 0.00988667 0.981098 -0.193258   
     length 1.9242   
     axis 0 0 0   XYZ
    dof rx ry rz
    limits (-20.0 45.0)
           (-30.0 30.0)
           (-30.0 30.0)
  end
  begin
     id 16
     name head
     direction 0.00252199 0.996513 -0.0833958  
     length 1.93887  
     axis 0 0 0   XYZ
    dof rx ry rz
    limits (-20.0 45.0)
           (-30.0 30.0)
           (-30.0 30.0)
  end
  begin
     id 17 
     name lclavicle
     direction 0.929492 0.368193 -0.0218667  
     length 3.5955  
     axis 0 0 0   XYZ
    dof ry rz
    limits (-20.0 10.0)
           (0.0 20.0)
  end
  begin
     id 18 
     name lhumerus
     direction 1 -4.48972e-011 1.41911e-027   
     length 5.2795   
     axis 180 -30 -90   XYZ
    dof rx ry rz
    limits (-60.0 90.0)
           (-90.0 90.0)
           (-90.0 90.0)
  end
  begin
     id 19
     name lradius
     direction 1 -4.48963e-011 7.05772e-027   
     length 3.53504   
     axis 180 -30 -90   XYZ
    dof rx
    limits (-10.0 170.0)
  end
  begin
     id 20
     name lwrist
     direction 1 -4.48957e-011 9.54866e-027   
     length 1.76752   
     axis -7.69462e-015 90 90   XYZ
    dof ry
    limits (-180.0 0.0)
 end
  begin
     id 21 
     name lhand
     direction 1 -4.48979e-011 1.90973e-026   
     length 0.667948   
     axis -1.21857e-014 90 90   XYZ
    dof rx rz
    limits (-90.0 90.0)
           (-45.0 45.0)
  end
  begin
     id 22 
     name lfingers
     direction 1 -4.48987e-011 3.81946e-026   
     length 0.538517   
     axis -2.43714e-014 90 90   XYZ
    dof rx
    limits (0.0 90.0)
  end
  begin
     id 23
     name lthumb
     direction 0.707107 -6.34962e-011 0.707107   
     length 0.773206   
     axis -90 45 2.85299e-015   XYZ
    dof rx rz
    limits (-45.0 45.0)
           (-45.0 45.0)
  end
  begin
     id 24 
     name rclavicle
     direction -0.898763 0.414256 -0.143584   
     length 3.5176  
     axis 0 0 0   XYZ 
    dof ry rz
    limits (-10.0 20.0)
           (-20.0 0.0)
  end
  begin
     id 25 
     name rhumerus
     direction -1 -4.48971e-011 1.129e-027  
     length 5.25035   
     axis 180 30 90   XYZ
    dof rx ry rz
    limits (-90.0 60.0)
           (-90.0 90.0)
           (-90.0 90.0)
  end
  begin
     id 26 
     name rradius
     direction -1 -4.48955e-011 6.34664e-027   
     length 3.58884   
     axis 180 30 90   XYZ
    dof rx
    limits (-10.0 170.0)
  end
  begin
     id 27 
     name rwrist
     direction -1 -4.48966e-011 9.54866e-027   
     length 1.79442   
     axis -7.69462e-015 -90 -90   XYZ
    dof ry
    limits (-180.0 0.0)
  end
  begin
     id 28
     name rhand
     direction -1 -4.48973e-011 1.90973e-026   
     length 0.779235   
     axis -1.21857e-014 -90 -90   XYZ
    dof rx rz
    limits (-90.0 90.0)
           (-45.0 45.0)
  end
  begin
     id 29
     name rfingers
     direction -1 -4.48984e-011 3.81946e-026   
     length 0.62824   
     axis -2.43714e-014 -90 -90   XYZ
    dof rx
    limits (0.0 90.0)
  end
  begin
     id 30
     name rthumb
     direction -0.707107 -6.34968e-011 0.707107   
     length 0.90203   
     axis -90 -45 -2.85299e-015   XYZ
    dof rx rz
    limits (-45.0 45.0)
           (-45.0 45.0)
  end
:hierarchy
  begin
    root lhipjoint rhipjoint lowerback
    lhipjoint lfemur
    lfemur ltibia
    ltibia lfoot
    lfoot ltoes
    rhipjoint rfemur
    rfemur rtibia
    rtibia rfoot
    rfoot rtoes
    lowerback upperback
    upperback thorax
    thorax lowerneck lclavicle rclavicle
    lowerneck upperneck
    upperneck head
    lclavicle lhumerus
    lhumerus lradius
    lradius lwrist
    lwrist lhand lthumb
    lhand lfingers
    rclavicle rhumerus
    rhumerus rradius
    rradius rwrist
    rwrist rhand rthumb
    rhand rfingers
  end

#!OML:ASF I:\Random Stuff\random\construction\7_22_03\Session 2\subj1.ASF
:FULLY-SPECIFIED
:DEGREES
169
root -0.240771 17.8643 -0.706243 1.8844 66.3716 -8.60065
lowerback 2.85875 0.228365 -2.07115
upperback -0.579976 0.229637 0.025112
thorax -2.20638 0.141756 1.17614
lowerneck -19.7379 -1.64754 1.27451
upperneck 45.7095 -3.45963 4.19186
head 22.8762 0.0579272 1.44152
rclavicle 1.16289e-014 2.38542e-015
rhumerus -17.4163 36.4084 -86.0576
rradius 78.1212
rwrist 17.7801
rhand -15.5979 3.5746
rfingers 7.12502
rthumb 10.588 -26.1387
lclavicle 1.16289e-014 2.38542e-015
lhumerus -33.54 -26.8436 100.106
lradius 81.2081
lwrist 39.8524
lhand -21.7167 63.5606
lfingers 7.12502
lthumb 4.68231 -93.4888
rfemur -7.5481 12.5642 20.2244
rtibia -2.38542e-015
rfoot 0.95163 -14.0774
rtoes -18.0334
lfemur -14.2365 -15.9518 -11.1924
ltibia 18.4124
lfoot -14.342 19.9684
ltoes -27.3799
170
root -0.245137 17.8712 -0.722701 1.89533 66.238 -8.73101
lowerback 2.82245 0.378571 -2.24757
upperback -0.557024 0.425366 0.0580074
thorax -2.17113 0.241331 1.29981
lowerneck -19.6072 -1.61896 1.20664
upperneck 45.621 -3.32567 4.11479
head 22.7336 0.0814621 1.43793
rclavicle -6.30147e-014 -7.95139e-015
rhumerus -17.3767 36.598 -86.2961
rradius 79.4636
rwrist 17.0867
rhand -15.4047 2.64756
rfingers 7.12502
rthumb 10.7744 -27.0561
lclavicle -6.30147e-014 -7.95139e-015
lhumerus -33.4395 -27.24 100.252
lradius 81.4848
lwrist 40.5704
lhand -21.1413 64.2468
lfingers 7.12502
lthumb 5.2379 -94.1621
rfemur -7.7286 12.6862 20.164
rtibia 1.59028e-015
rfoot 0.741612 -14.0818
rtoes -15.6577
lfemur -14.3649 -16.1569 -11.1274
ltibia 18.3925
lfoot -14.2201 20.3191
ltoes -27.3814
171
root -0.250345 17.8762 -0.736326 2.08314 66.1433 -8.6714
lowerback 2.78453 0.479851 -2.51655
upperback -0.535456 0.552239 0.0605723
thorax -2.1355 0.307474 1.44766
lowerneck -19.5762 -1.56464 1.19331
upperneck 45.6635 -3.19281 4.07529
head 22.7512 0.124837 1.45404
rclavicle 6.63941e-014 -2.22639e-014
rhumerus -17.2586 36.7009 -86.631
rradius 80.5024
rwrist 16.4646
rhand -15.3641 1.58591
rfingers 7.12502
rthumb 10.8136 -28.1157
lclavicle 6.63941e-014 -2.22639e-014
lhumerus -33.3297 -27.7359 100.334
lradius 81.749
lwrist 41.403
lhand -20.2099 64.7497
lfingers 7.12502
lthumb 6.13715 -94.6408
rfemur -7.90771 12.7706 20.053
rtibia 7.55382e-015
rfoot 0.733866 -14.0699
rtoes -15.5674
lfemur -14.5238 -16.4374 -11.1255
ltibia 18.4158
lfoot -14.2272 20.6309
ltoes -26.8705
172
root -0.254207 17.8755 -0.75049 2.13004 66.2345 -8.68334
lowerback 2.81336 0.533916 -2.63825
upperback -0.481448 0.619052 0.0106756
thorax -2.09996 0.341103 1.46155
lowerneck -19.5877 -1.5269 1.26467
upperneck 45.7781 -3.11764 4.02582
head 22.8514 0.165021 1.43966
rclavicle 6.85807e-015 -7.95139e-016
rhumerus -17.1357 36.4489 -87.0641
rradius 81.1283
rwrist 15.7123
rhand -15.5299 0.524149
rfingers 7.12502
rthumb 10.6536 -29.1858
lclavicle 6.85807e-015 -7.95139e-016
lhumerus -33.2528 -28.4445 100.379
lradius 81.9158
lwrist 42.1825
lhand -19.5785 65.1095
lfingers 7.12502
lthumb 6.74668 -94.982
rfemur -7.96574 12.6757 20.0239
rtibia -3.97569e-016
rfoot 0.917953 -14.0581
rtoes -17.6538
lfemur -14.6861 -16.6307 -11.1202
ltibia 18.4914
lfoot -14.2888 20.7587
ltoes -26.6587
173
root -0.25497 17.8756 -0.764726 2.11598 66.441 -8.79333
lowerback 2.76287 0.56486 -2.63683
upperback -0.429799 0.66132 -0.0687143
thorax -2.01944 0.360296 1.37801
lowerneck -19.5437 -1.52998 1.33567
upperneck 45.8575 -3.13097 4.02561
head 22.9052 0.178649 1.42859
rclavicle 1.53064e-014 2.38542e-015
rhumerus -17.0795 35.903 -87.5335
rradius 81.3179
rwrist 14.389
rhand -15.8523 -0.390496
rfingers 7.12502
rthumb 10.3426 -30.1162
lclavicle 1.53064e-014 2.38542e-015
lhumerus -33.2976 -29.3049 100.517
lradius 82.0843
lwrist 43.0382
lhand -19.7 65.4625
lfingers 7.12502
lthumb 6.62947 -95.3388
rfemur -8.02423 12.4643 20.0133
rtibia -3.57812e-015
rfoot 0.976117 -14.0689
rtoes -18.6877
lfemur -14.9702 -16.6487 -11.0895
ltibia 18.6743
lfoot -14.279 20.7123
ltoes -27.2577
174
root -0.253378 17.8785 -0.782275 2.09608 66.7166 -8.99617
lowerback 2.62037 0.555366 -2.52765
upperback -0.41825 0.655362 -0.159492
thorax -1.92488 0.354438 1.22529
lowerneck -19.4794 -1.5256 1.51471
upperneck 45.9497 -3.13442 3.92952
head 22.9531 0.203795 1.34578
rclavicle 1.72943e-014 -1.03368e-014
rhumerus -17.0541 35.2721 -87.9538
rradius 81.078
rwrist 12.3864
rhand -16.4293 -1.10611
rfingers 7.12502
rthumb 9.78596 -30.8587
lclavicle 1.72943e-014 -1.03368e-014
lhumerus -33.4293 -30.113 100.706
lradius 82.4047
lwrist 43.9881
lhand -19.7551 66.2005
lfingers 7.12502
lthumb 6.57622 -96.0784
rfemur -8.17259 12.1795 19.9935
rtibia -9.93923e-015
rfoot 0.930938 -14.0775
rtoes -18.8487
lfemur -15.3963 -16.6889 -11.0087
ltibia 18.925
lfoot -14.2558 20.566
ltoes -27.5073
175
root -0.250907 17.8784 -0.798248 1.71941 66.9986 -9.51591
lowerback 2.55417 0.524742 -2.29944
upperback -0.409868 0.62309 -0.210473
thorax -1.8746 0.334971 1.04715
lowerneck -19.4693 -1.50439 1.64358
upperneck 46.1205 -3.12568 3.91857
head 23.1036 0.238724 1.32931
rclavicle -4.01545e-014 7.15625e-015
rhumerus -17.1179 34.6735 -88.3629
rradius 80.5406
rwrist 9.77717
rhand -17.2293 -1.74887
rfingers 7.12502
rthumb 9.0141 -31.5363
lclavicle -4.01545e-014 7.15625e-015
lhumerus -33.4514 -30.7277 100.772
lradius 82.7016
lwrist 44.8366
lhand -19.1759 67.0358
lfingers 7.12502
lthumb 7.13537 -96.8955
rfemur -8.25209 11.8963 20.1341
rtibia -3.97569e-016
rfoot 0.895853 -14.0811
rtoes -18.8663
lfemur -15.7331 -16.7275 -10.8043
ltibia 19.1538
lfoot -14.2583 20.3185
ltoes -27.3554
176
root -0.24815 17.8774 -0.806213 1.38651 67.1732 -9.94257
lowerback 2.48884 0.544091 -2.22195
upperback -0.394029 0.653018 -0.230581
thorax -1.82157 0.348332 0.982565
lowerneck -19.4362 -1.53742 1.55288
upperneck 46.2249 -3.22142 4.1404
head 23.2104 0.222821 1.45719
rclavicle -6.50026e-014 -1.51076e-014
rhumerus -17.3035 34.1086 -88.7093
rradius 79.8501
rwrist 6.48532
rhand -18.3409 -2.38257
rfingers 7.12502
rthumb 7.94133 -32.2134
lclavicle -6.50026e-014 -1.51076e-014
lhumerus -33.3937 -31.3024 100.841
lradius 82.8492
lwrist 45.8235
lhand -18.7497 67.4297
lfingers 7.12502
lthumb 7.54676 -97.2751
rfemur -8.28802 11.723 20.2697
rtibia 1.74931e-014
rfoot 0.860907 -14.0842
rtoes -18.6814
lfemur -15.9492 -16.7581 -10.63
ltibia 19.3252
lfoot -14.3393 20.1738
ltoes -27.3572
177
root -0.246704 17.8787 -0.81457 1.18589 67.3991 -10.2213
lowerback 2.42526 0.555529 -2.21605
upperback -0.386856 0.670151 -0.238974
thorax -1.77892 0.356315 0.970615
lowerneck -19.383 -1.59526 1.43276
upperneck 46.2641 -3.34468 4.35125
head 23.2502 0.187244 1.57359
rclavicle 1.68967e-014 -4.77083e-015
rhumerus -17.5381 33.6442 -88.9442
rradius 79.176
rwrist 2.45613
rhand -19.6642 -2.70851
rfingers 7.12502
rthumb 6.66397 -32.5837
lclavicle 1.68967e-014 -4.77083e-015
lhumerus -33.3531 -31.8028 101.017
lradius 82.9132
lwrist 47.011
lhand -18.8127 67.3643
lfingers 7.12502
lthumb 7.48598 -97.2119
rfemur -8.31749 11.4956 20.3427
rtibia 1.27222e-014
rfoot 0.81501 -14.0679
rtoes -18.5883
lfemur -16.1327 -16.8515 -10.5164
ltibia 19.401
lfoot -14.4161 20.0489
ltoes -26.789
178
root -0.247343 17.8819 -0.825771 0.849139 67.7573 -10.5838
lowerback 2.47532 0.512844 -2.15777
upperback -0.378931 0.614113 -0.217343
thorax -1.79659 0.327936 0.961991
lowerneck -19.3566 -1.64661 1.40888
upperneck 46.3336 -3.4127 4.37386
head 23.3113 0.165922 1.58058
rclavicle 3.16068e-014 1.59028e-014
rhumerus -17.7734 33.288 -89.0862
rradius 78.6247
rwrist -2.01439
rhand -20.7974 -2.82901
rfingers 7.12502
rthumb 5.56994 -32.7358
lclavicle 3.16068e-014 1.59028e-014
lhumerus -33.2698 -32.0649 101.228
lradius 82.8635
lwrist 48.0892
lhand -18.9626 67.2059
lfingers 7.12502
lthumb 7.3412 -97.0585
rfemur -8.28321 11.132 20.4385
rtibia -2.78299e-015
rfoot 0.647174 -14.0637
rtoes -17.2492
lfemur -16.2515 -17.038 -10.3937
ltibia 19.3692
lfoot -14.308 19.8714
ltoes -25.9427
179
root -0.248342 17.8872 -0.834719 0.768725 68.041 -10.6521
lowerback 2.55512 0.509246 -2.23137
upperback -0.369511 0.605111 -0.214642
thorax -1.83226 0.324514 1.00572
lowerneck -19.2998 -1.72084 1.43735
upperneck 46.3502 -3.49554 4.29181
head 23.3003 0.133377 1.50971
rclavicle 3.99557e-014 4.77083e-015
rhumerus -18.0477 32.9066 -89.1897
rradius 78.2369
rwrist -6.64221
rhand -21.7572 -3.08738
rfingers 7.12502
rthumb 4.6432 -33.0165
lclavicle 3.99557e-014 4.77083e-015
lhumerus -33.1669 -32.2324 101.464
lradius 82.7189
lwrist 49.0281
lhand -18.8465 67.985
lfingers 7.12502
lthumb 7.45334 -97.8337
rfemur -8.25826 10.8361 20.3993
rtibia 5.56597e-015
rfoot 0.383238 -14.0773
rtoes -14.5863
lfemur -16.3028 -17.337 -10.3856
ltibia 19.2858
lfoot -14.1775 19.9376
ltoes -25.9527
